<svg xmlns="http://www.w3.org/2000/svg" viewBox="0 0 480 480" role="img" aria-labelledby="title desc">
  <title id="title">Teacher development</title><desc id="desc">An open book with a structured learning constellation.</desc>
  <defs><linearGradient id="bg" x1="90" y1="60" x2="390" y2="420" gradientUnits="userSpaceOnUse"><stop stop-color="#F0FCF9"/><stop offset="1" stop-color="#D8F3EC"/></linearGradient></defs>
  <circle cx="240" cy="240" r="224" fill="url(#bg)"/><circle cx="240" cy="240" r="186" fill="#fff" stroke="#C8EADF" stroke-width="3"/><circle cx="240" cy="240" r="156" fill="none" stroke="#0F9C88" stroke-width="3" stroke-dasharray="2 11" stroke-linecap="round"/>
  <path d="M140 198c35-24 69-24 100 5 31-29 65-29 100-5v107c-36-24-70-23-100 5-30-28-64-29-100-5z" fill="#E6F7F2" stroke="#087D6E" stroke-width="7" stroke-linejoin="round"/><path d="M240 203v107M165 229c21-8 42-5 57 6M165 262c21-8 42-5 57 6M315 229c-21-8-42-5-57 6M315 262c-21-8-42-5-57 6" fill="none" stroke="#087D6E" stroke-width="6" stroke-linecap="round"/><path d="M240 147V97M205 158l-31-31M275 158l31-31" fill="none" stroke="#0F9C88" stroke-width="7" stroke-linecap="round"/><circle cx="240" cy="79" r="10" fill="#E9B447"/><circle cx="159" cy="113" r="9" fill="#0F9C88"/><circle cx="321" cy="113" r="9" fill="#0F9C88"/>
  <path d="M158 338c24 18 52 27 83 27 34 0 65-12 88-34" fill="none" stroke="#0F9C88" stroke-width="7" stroke-linecap="round"/><path d="M305 331l24 0-9 22" fill="none" stroke="#0F9C88" stroke-width="7" stroke-linecap="round" stroke-linejoin="round"/>
</svg>
